PathFileType	4	(X/Y/Z)	SUBJ32_3_walk_RCNL2025.trc
DataRate	CameraRate	NumFrames	NumMarkers	Units	OrigDataRate	OrigDataStartFrame	OrigNumFrames
100	100	13	25	mm	100	1	393
Frame#	Time	R_Shoulder			L_Shoulder			C7			J_Notch			R_Elbow			L_Elbow			R_Wrist			L_Wrist			R_Asis			L_Asis			Sacral			Thoracic			Sternum			R_Thigh_Lateral			R_Knee_Lateral			R_Shank_Lateral			R_Ankle_Lateral			R_Heel			R_Toe			L_Thigh_Lateral			L_Knee_Lateral			L_Shank_Lateral			L_Ankle_Lateral			L_Heel			L_Toe		
		X1	Y1	Z1	X2	Y2	Z2	X3	Y3	Z3	X4	Y4	Z4	X5	Y5	Z5	X6	Y6	Z6	X7	Y7	Z7	X8	Y8	Z8	X9	Y9	Z9	X10	Y10	Z10	X11	Y11	Z11	X12	Y12	Z12	X13	Y13	Z13	X14	Y14	Z14	X15	Y15	Z15	X16	Y16	Z16	X17	Y17	Z17	X18	Y18	Z18	X19	Y19	Z19	X20	Y20	Z20	X21	Y21	Z21	X22	Y22	Z22	X23	Y23	Z23	X24	Y24	Z24	X25	Y25	Z25
1	0.00000000	-1605.785400	1346.659546	31.725077	-1612.750977	1358.567627	-338.101990	-1654.292603	1419.408569	-140.043106	-1519.186646	1329.787598	-152.059784	-1698.940430	1020.522583	126.819359	-1614.801758	1051.748657	-471.724548	-1653.481506	773.564026	151.109497	-1452.843445	849.688324	-492.277390	-1539.940063	891.737488	-43.381691	-1566.028931	885.089905	-295.189606	-1746.864380	936.924438	-147.344299	-1742.612549	1197.111206	-149.799530	-1452.853516	1097.956421	-169.814926	-1531.998901	534.753052	40.439735	-1495.212280	450.552002	-3.781388	-1466.716797	296.146393	67.476234	-1400.369751	77.112213	-33.083630	-1444.272949	51.333256	-88.601784	-1268.282227	86.997391	-61.037498	-1698.520264	550.877258	-375.237488	-1715.266113	458.456543	-324.799927	-1772.323364	240.192490	-340.545685	-1819.028076	61.543148	-244.619553	-1866.023438	55.423843	-193.321167	-1684.060669	41.069588	-231.639587
2	0.01000000	-1599.880249	1345.470825	32.677055	-1606.653931	1357.982056	-337.026215	-1648.505493	1418.329224	-138.977264	-1513.257812	1328.827637	-151.030655	-1692.959717	1019.159485	127.379440	-1607.992676	1051.615967	-471.530060	-1647.513184	772.153809	151.420502	-1445.328064	850.205933	-492.438324	-1533.677124	890.480957	-43.168480	-1559.964722	884.338501	-294.874329	-1740.804443	935.834961	-146.645813	-1736.675293	1195.961914	-148.984177	-1446.883179	1097.041870	-169.234741	-1527.604126	532.558411	40.551075	-1489.393188	449.094299	-3.419456	-1457.380005	295.616974	68.045700	-1386.282715	77.630463	-32.474701	-1430.230957	50.993862	-87.546944	-1254.543701	89.531830	-61.312893	-1694.849487	550.561523	-374.953796	-1712.121460	458.201538	-324.520294	-1770.855103	240.355698	-340.303009	-1818.908813	62.026333	-244.372406	-1865.870972	56.072170	-193.018524	-1684.036133	41.044472	-231.553940
3	0.02000000	-1592.431274	1343.973877	33.916664	-1598.968750	1357.245483	-335.629913	-1641.194336	1416.948242	-137.595840	-1505.758423	1327.638062	-149.718094	-1685.374390	1017.434265	128.123779	-1599.497192	1051.434692	-471.208344	-1639.898621	770.398956	151.857681	-1436.036011	850.780762	-492.610306	-1525.702026	888.927368	-42.879528	-1552.385864	883.351746	-294.492493	-1733.124023	934.482788	-145.744415	-1729.154053	1194.532349	-147.939606	-1439.315552	1095.902710	-168.456284	-1521.468994	530.065552	40.792412	-1481.776367	447.415680	-2.921772	-1445.816284	294.966095	68.777954	-1369.763062	78.103386	-31.794043	-1413.750854	50.573830	-86.386368	-1238.420044	92.261650	-61.524803	-1690.171753	550.202942	-374.604370	-1708.100464	457.924469	-324.183289	-1768.967285	240.619553	-340.028351	-1818.742920	62.700085	-244.088516	-1865.672729	56.987473	-192.675751	-1684.000122	41.013821	-231.457443
4	0.03000000	-1583.726196	1342.231812	35.417461	-1589.993774	1356.394165	-333.948425	-1632.637085	1415.311401	-135.936874	-1496.966919	1326.275269	-148.155426	-1676.455322	1015.416687	129.043549	-1589.694214	1051.204712	-470.735199	-1630.885925	768.377411	152.422920	-1425.425659	851.349640	-492.766617	-1516.295410	887.160950	-42.514500	-1543.588867	882.162842	-294.054504	-1724.104614	932.929993	-144.667206	-1720.323975	1192.887939	-146.696014	-1430.420410	1094.594238	-167.485214	-1513.521851	527.542969	41.208073	-1472.523315	445.662781	-2.291307	-1432.624512	294.212891	69.636353	-1352.109497	78.396736	-31.103636	-1396.132202	50.083279	-85.241684	-1221.165771	94.772728	-61.598713	-1684.624756	549.835876	-374.204590	-1703.314697	457.654327	-323.813110	-1766.698975	241.004166	-339.748871	-1818.524658	63.575390	-243.799362	-1865.432495	58.188034	-192.332367	-1683.951538	40.979244	-231.360550
5	0.04000000	-1574.109741	1340.324219	37.142334	-1580.086670	1355.475952	-332.030823	-1623.170776	1413.481689	-134.052933	-1487.221924	1324.807739	-146.380173	-1666.535034	1013.194153	130.121292	-1579.028442	1050.930298	-470.092438	-1620.785889	766.176392	153.106522	-1414.021057	851.847107	-492.874847	-1505.818481	885.288086	-42.070004	-1533.900635	880.824463	-293.559143	-1714.092529	931.247742	-143.451340	-1710.524048	1191.108398	-145.291565	-1420.529297	1093.183716	-166.336853	-1503.796265	525.282471	41.832893	-1461.900024	443.982697	-1.541721	-1418.537964	293.363983	70.561554	-1334.682129	78.374786	-30.453560	-1378.747070	49.539501	-84.217484	-1204.088379	96.588295	-61.474419	-1678.364136	549.490967	-373.769684	-1697.891113	457.413605	-323.435059	-1764.086792	241.521973	-339.492401	-1818.244751	64.659637	-243.541275	-1865.153198	59.685242	-192.033569	-1683.888550	40.942799	-231.273468
6	0.05000000	-1563.894897	1338.330811	39.054283	-1569.577148	1354.538818	-329.927856	-1613.106567	1411.528564	-131.994919	-1476.837402	1323.305298	-144.425446	-1655.922974	1010.848267	131.336624	-1567.907104	1050.622314	-469.265472	-1609.889832	763.873444	153.891731	-1402.294373	852.216919	-492.900482	-1494.622559	883.420776	-41.533615	-1523.600952	879.392517	-292.991974	-1703.410645	929.501404	-142.133530	-1700.071655	1189.273193	-143.762283	-1409.951294	1091.737793	-165.032074	-1492.439697	523.533691	42.684181	-1450.225098	442.488068	-0.693145	-1404.272705	292.410034	71.483360	-1318.614624	77.953156	-29.864296	-1362.740967	48.984844	-83.378670	-1188.257446	97.258522	-61.120052	-1671.509644	549.184814	-373.309235	-1691.925415	457.210480	-323.066376	-1761.142822	242.174301	-339.280487	-1817.889893	65.960579	-243.347412	-1864.833984	61.490749	-191.820419	-1683.807739	40.907433	-231.203690
7	0.06000000	-1553.323730	1336.321533	41.121155	-1558.726929	1353.625732	-327.687195	-1602.687988	1409.526001	-129.802689	-1466.062988	1321.835083	-142.318039	-1644.865234	1008.446045	132.669266	-1556.653076	1050.297241	-468.242859	-1598.431946	761.530304	154.758896	-1390.616211	852.418091	-492.812668	-1482.999146	881.668884	-40.886513	-1512.898438	877.917603	-292.330994	-1692.318237	927.748230	-140.745056	-1689.223633	1187.454102	-142.137375	-1398.936401	1090.318481	-163.597031	-1479.725098	522.460815	43.755707	-1437.840576	441.243744	0.233945	-1390.421021	291.337524	72.335838	-1304.673218	77.132019	-29.329149	-1348.882690	48.500210	-82.753296	-1174.369873	96.449600	-60.534039	-1664.126831	548.918274	-372.824005	-1685.460815	457.037018	-322.712036	-1757.846924	242.951950	-339.123260	-1817.442993	67.489502	-243.242981	-1864.466187	63.622410	-191.722260	-1683.702393	40.877159	-231.154221
8	0.07000000	-1542.560913	1334.354858	43.317234	-1547.720825	1352.774536	-325.349152	-1592.077515	1407.559326	-127.499130	-1455.071655	1320.462036	-140.077484	-1633.529053	1006.042542	134.099731	-1545.494263	1049.973877	-467.016876	-1586.583191	759.197174	155.690376	-1379.249268	852.429077	-492.590286	-1471.159058	880.136780	-40.113457	-1501.931763	876.443970	-291.553833	-1681.001831	926.042297	-139.312332	-1678.164917	1185.713623	-140.437912	-1387.669067	1088.987427	-162.062057	-1466.030273	522.122742	45.012974	-1425.085571	440.272949	1.225348	-1377.388184	290.147308	73.072823	-1293.220215	75.988541	-28.833649	-1337.529785	48.196491	-82.344215	-1162.734009	94.016678	-59.742016	-1656.228394	548.680908	-372.304993	-1678.486206	456.873810	-322.366974	-1754.150635	243.841385	-339.019318	-1816.882568	69.267273	-243.244171	-1864.028809	66.110809	-191.755615	-1683.562500	40.855358	-231.122559
9	0.08000000	-1531.703979	1332.480469	45.622498	-1536.674316	1352.020264	-322.943146	-1581.359619	1405.730713	-125.087517	-1443.968140	1319.249023	-137.718384	-1622.005493	1003.687012	135.610062	-1534.573853	1049.673218	-465.582672	-1574.461609	756.921967	156.675224	-1368.362549	852.248932	-492.224014	-1459.232544	878.919617	-39.211826	-1490.781616	875.013062	-290.642426	-1669.583862	924.443054	-137.860260	-1667.016357	1184.107056	-138.679352	-1376.275635	1087.810059	-160.455933	-1451.780518	522.483765	46.393803	-1412.262817	439.577393	2.277342	-1365.378174	288.869568	73.679802	-1284.254761	74.646095	-28.370056	-1328.679321	48.182468	-82.131149	-1153.335571	90.043030	-58.796776	-1647.784790	548.458313	-371.737183	-1670.943970	456.698059	-322.023224	-1749.985107	244.833588	-338.962280	-1816.177490	71.329735	-243.358902	-1863.482788	69.006660	-191.929245	-1683.374146	40.843124	-231.102188
10	0.09000000	-1520.805054	1330.743408	48.020996	-1525.649536	1351.400269	-320.489105	-1570.562012	1404.149902	-122.558357	-1432.809204	1318.259033	-135.256027	-1610.326050	1001.427612	137.184479	-1523.967041	1049.419434	-463.935791	-1562.141968	754.753052	157.707306	-1358.052551	851.893982	-491.710022	-1447.286987	878.097778	-38.192112	-1479.486816	873.666870	-289.583771	-1658.138550	923.021729	-136.415085	-1655.848877	1182.686768	-136.875687	-1364.836182	1086.855469	-158.798737	-1437.381470	523.451660	47.820133	-1399.605347	439.161591	3.399609	-1354.423462	287.570496	74.182693	-1277.501587	73.240341	-27.933844	-1322.067871	48.522259	-82.058250	-1145.943237	84.841782	-57.784199	-1638.737305	548.238953	-371.108124	-1662.741333	456.492401	-321.677155	-1745.268433	245.929382	-338.948669	-1815.280273	73.729202	-243.587799	-1862.767822	72.385033	-192.248749	-1683.120239	40.840050	-231.086517
11	0.10000000	-1509.894165	1329.186768	50.499073	-1514.672974	1350.955811	-318.001282	-1559.686768	1402.910400	-119.904045	-1421.625244	1317.554199	-132.711075	-1598.485718	999.312744	138.808151	-1513.701050	1049.240479	-462.069794	-1549.663086	752.736023	158.779190	-1348.363831	851.389923	-491.038864	-1435.352905	877.728760	-37.068241	-1468.062988	872.450500	-288.369904	-1646.702271	921.862427	-135.004150	-1644.699585	1181.501221	-135.042862	-1353.394409	1086.192139	-157.097672	-1423.169556	524.917603	49.221241	-1387.251953	439.047699	4.617269	-1344.428955	286.354004	74.655136	-1272.524780	71.893776	-27.509075	-1317.289429	49.205082	-82.024811	-1140.221191	78.917267	-56.825195	-1629.008789	548.019043	-370.414856	-1653.763306	456.249512	-321.334015	-1739.912354	247.139999	-338.981934	-1814.121826	76.532318	-243.925613	-1861.797974	76.342316	-192.717636	-1682.782593	40.844757	-231.072006
12	0.11000000	-1498.993896	1327.850586	53.042439	-1503.749268	1350.732666	-315.491058	-1548.732910	1402.076050	-117.128883	-1410.434326	1317.189331	-130.109543	-1586.463257	997.390381	140.464600	-1503.772339	1049.168945	-459.976318	-1537.036682	750.912872	159.879143	-1339.308289	850.765778	-490.192734	-1423.450073	877.840088	-35.843620	-1456.521362	871.411682	-287.001312	-1635.281616	921.055664	-133.653870	-1633.584229	1180.594360	-133.199783	-1341.964600	1085.880249	-155.346436	-1409.382568	526.774658	50.563511	-1375.249512	439.269501	5.967768	-1335.204834	285.356567	75.213799	-1268.850708	70.702377	-27.063417	-1313.906494	50.147217	-81.907272	-1135.821167	72.871101	-56.051601	-1618.516235	547.801392	-369.666107	-1643.884521	455.971252	-321.010101	-1733.828247	248.487183	-339.073456	-1812.610840	79.814186	-244.364716	-1860.456055	80.987183	-193.337769	-1682.343140	40.853252	-231.058090
13	0.12000000	-1488.125732	1326.769165	55.633369	-1492.873291	1350.776245	-312.969025	-1537.705078	1401.681641	-114.250175	-1399.246704	1317.199585	-127.475563	-1574.235229	995.706970	142.133972	-1494.160889	1049.241089	-457.647217	-1524.257507	749.325165	160.993103	-1330.882324	850.051483	-489.153885	-1411.602905	878.425720	-34.503464	-1444.883179	870.598572	-285.493744	-1623.867798	920.674866	-132.388123	-1622.503540	1180.007080	-131.366196	-1330.534546	1085.962036	-153.524384	-1396.147705	528.917358	51.875378	-1363.586792	439.848785	7.488756	-1326.497437	284.724335	75.985550	-1266.073608	69.728180	-26.565718	-1311.533325	51.223686	-81.611130	-1132.442627	67.261795	-55.555145	-1607.183716	547.591980	-368.882751	-1632.982422	455.665283	-320.734894	-1726.929810	250.005829	-339.242218	-1810.632446	83.649078	-244.900955	-1858.591797	86.429008	-194.112152	-1681.785278	40.858105	-231.044479
